%
M48
M72
T01C0.01378
T02C0.03937
T03C0.04331
T04C0.12598
%
T01
X57299Y69360
X75803Y87864
X102575Y68967
X130921Y87864
X144701Y113455
X160449Y131592
X158087Y135108
X160449Y139045
X160449Y142982
X150606Y144951
X148638Y137077
X130921Y133140
X125016Y133140
X109661Y140226
X102575Y132746
X95488Y141014
X89583Y141014
X83677Y137077
X56906Y123691
X63992Y113455
X95488Y113455
X113205Y113455
X160449Y154793
X160449Y160699
X184071Y146919
X189976Y148888
X189976Y142134
X189976Y135108
X189976Y129203
X182102Y133140
X203362Y135108
X186039Y154793
X217535Y176447
X221472Y180384
X221472Y172510
X231315Y164636
X223441Y162667
X223441Y154793
X211630Y184321
X223441Y190226
X235252Y188258
X231315Y202037
X195882Y184321
X176197Y184321
X156512Y184321
X138795Y184321
X102575Y214242
X73047Y196526
X56906Y174478
X176197Y60305
X223441Y60305
X223441Y105581
T02
X200606Y221722
X190606Y221722
X180606Y221722
X170606Y221722
X160606Y221722
X150606Y221722
X119898Y221722
X109898Y221722
X99898Y221722
X89898Y221722
X79898Y221722
X69898Y221722
T03
X69898Y64242
X79740Y64242
X89583Y64242
X89583Y74085
X79740Y74085
X69898Y74085
X119110Y74085
X128953Y74085
X138795Y74085
X138795Y64242
X128953Y64242
X119110Y64242
X231315Y221722
X241315Y221722
T04
X24622Y58337
X24622Y223691
X288402Y223691
X288402Y58337
M30
