G75*
%MOIN*%
%OFA0B0*%
%FSLAX25Y25*%
%IPPOS*%
%LPD*%
%AMOC8*
5,1,8,0,0,1.08239X$1,22.5*
%
%ADD10C,0.00000*%
%ADD11R,0.06299X0.10236*%
%ADD12C,0.00984*%
%ADD13C,0.00591*%
D10*
X0024622Y0042589D02*
X0288402Y0042589D01*
X0288783Y0042594D01*
X0289163Y0042607D01*
X0289543Y0042630D01*
X0289922Y0042663D01*
X0290300Y0042704D01*
X0290677Y0042754D01*
X0291053Y0042814D01*
X0291428Y0042882D01*
X0291800Y0042960D01*
X0292171Y0043047D01*
X0292539Y0043142D01*
X0292905Y0043247D01*
X0293268Y0043360D01*
X0293629Y0043482D01*
X0293986Y0043612D01*
X0294340Y0043752D01*
X0294691Y0043899D01*
X0295038Y0044056D01*
X0295381Y0044220D01*
X0295720Y0044393D01*
X0296055Y0044574D01*
X0296386Y0044763D01*
X0296711Y0044960D01*
X0297032Y0045164D01*
X0297348Y0045377D01*
X0297658Y0045597D01*
X0297964Y0045824D01*
X0298263Y0046059D01*
X0298557Y0046301D01*
X0298845Y0046549D01*
X0299127Y0046805D01*
X0299402Y0047068D01*
X0299671Y0047337D01*
X0299934Y0047612D01*
X0300190Y0047894D01*
X0300438Y0048182D01*
X0300680Y0048476D01*
X0300915Y0048775D01*
X0301142Y0049081D01*
X0301362Y0049391D01*
X0301575Y0049707D01*
X0301779Y0050028D01*
X0301976Y0050353D01*
X0302165Y0050684D01*
X0302346Y0051019D01*
X0302519Y0051358D01*
X0302683Y0051701D01*
X0302840Y0052048D01*
X0302987Y0052399D01*
X0303127Y0052753D01*
X0303257Y0053110D01*
X0303379Y0053471D01*
X0303492Y0053834D01*
X0303597Y0054200D01*
X0303692Y0054568D01*
X0303779Y0054939D01*
X0303857Y0055311D01*
X0303925Y0055686D01*
X0303985Y0056062D01*
X0304035Y0056439D01*
X0304076Y0056817D01*
X0304109Y0057196D01*
X0304132Y0057576D01*
X0304145Y0057956D01*
X0304150Y0058337D01*
X0304150Y0223691D01*
X0304145Y0224072D01*
X0304132Y0224452D01*
X0304109Y0224832D01*
X0304076Y0225211D01*
X0304035Y0225589D01*
X0303985Y0225966D01*
X0303925Y0226342D01*
X0303857Y0226717D01*
X0303779Y0227089D01*
X0303692Y0227460D01*
X0303597Y0227828D01*
X0303492Y0228194D01*
X0303379Y0228557D01*
X0303257Y0228918D01*
X0303127Y0229275D01*
X0302987Y0229629D01*
X0302840Y0229980D01*
X0302683Y0230327D01*
X0302519Y0230670D01*
X0302346Y0231009D01*
X0302165Y0231344D01*
X0301976Y0231675D01*
X0301779Y0232000D01*
X0301575Y0232321D01*
X0301362Y0232637D01*
X0301142Y0232947D01*
X0300915Y0233253D01*
X0300680Y0233552D01*
X0300438Y0233846D01*
X0300190Y0234134D01*
X0299934Y0234416D01*
X0299671Y0234691D01*
X0299402Y0234960D01*
X0299127Y0235223D01*
X0298845Y0235479D01*
X0298557Y0235727D01*
X0298263Y0235969D01*
X0297964Y0236204D01*
X0297658Y0236431D01*
X0297348Y0236651D01*
X0297032Y0236864D01*
X0296711Y0237068D01*
X0296386Y0237265D01*
X0296055Y0237454D01*
X0295720Y0237635D01*
X0295381Y0237808D01*
X0295038Y0237972D01*
X0294691Y0238129D01*
X0294340Y0238276D01*
X0293986Y0238416D01*
X0293629Y0238546D01*
X0293268Y0238668D01*
X0292905Y0238781D01*
X0292539Y0238886D01*
X0292171Y0238981D01*
X0291800Y0239068D01*
X0291428Y0239146D01*
X0291053Y0239214D01*
X0290677Y0239274D01*
X0290300Y0239324D01*
X0289922Y0239365D01*
X0289543Y0239398D01*
X0289163Y0239421D01*
X0288783Y0239434D01*
X0288402Y0239439D01*
X0024622Y0239439D01*
X0024241Y0239434D01*
X0023861Y0239421D01*
X0023481Y0239398D01*
X0023102Y0239365D01*
X0022724Y0239324D01*
X0022347Y0239274D01*
X0021971Y0239214D01*
X0021596Y0239146D01*
X0021224Y0239068D01*
X0020853Y0238981D01*
X0020485Y0238886D01*
X0020119Y0238781D01*
X0019756Y0238668D01*
X0019395Y0238546D01*
X0019038Y0238416D01*
X0018684Y0238276D01*
X0018333Y0238129D01*
X0017986Y0237972D01*
X0017643Y0237808D01*
X0017304Y0237635D01*
X0016969Y0237454D01*
X0016638Y0237265D01*
X0016313Y0237068D01*
X0015992Y0236864D01*
X0015676Y0236651D01*
X0015366Y0236431D01*
X0015060Y0236204D01*
X0014761Y0235969D01*
X0014467Y0235727D01*
X0014179Y0235479D01*
X0013897Y0235223D01*
X0013622Y0234960D01*
X0013353Y0234691D01*
X0013090Y0234416D01*
X0012834Y0234134D01*
X0012586Y0233846D01*
X0012344Y0233552D01*
X0012109Y0233253D01*
X0011882Y0232947D01*
X0011662Y0232637D01*
X0011449Y0232321D01*
X0011245Y0232000D01*
X0011048Y0231675D01*
X0010859Y0231344D01*
X0010678Y0231009D01*
X0010505Y0230670D01*
X0010341Y0230327D01*
X0010184Y0229980D01*
X0010037Y0229629D01*
X0009897Y0229275D01*
X0009767Y0228918D01*
X0009645Y0228557D01*
X0009532Y0228194D01*
X0009427Y0227828D01*
X0009332Y0227460D01*
X0009245Y0227089D01*
X0009167Y0226717D01*
X0009099Y0226342D01*
X0009039Y0225966D01*
X0008989Y0225589D01*
X0008948Y0225211D01*
X0008915Y0224832D01*
X0008892Y0224452D01*
X0008879Y0224072D01*
X0008874Y0223691D01*
X0008874Y0058337D01*
X0008879Y0057956D01*
X0008892Y0057576D01*
X0008915Y0057196D01*
X0008948Y0056817D01*
X0008989Y0056439D01*
X0009039Y0056062D01*
X0009099Y0055686D01*
X0009167Y0055311D01*
X0009245Y0054939D01*
X0009332Y0054568D01*
X0009427Y0054200D01*
X0009532Y0053834D01*
X0009645Y0053471D01*
X0009767Y0053110D01*
X0009897Y0052753D01*
X0010037Y0052399D01*
X0010184Y0052048D01*
X0010341Y0051701D01*
X0010505Y0051358D01*
X0010678Y0051019D01*
X0010859Y0050684D01*
X0011048Y0050353D01*
X0011245Y0050028D01*
X0011449Y0049707D01*
X0011662Y0049391D01*
X0011882Y0049081D01*
X0012109Y0048775D01*
X0012344Y0048476D01*
X0012586Y0048182D01*
X0012834Y0047894D01*
X0013090Y0047612D01*
X0013353Y0047337D01*
X0013622Y0047068D01*
X0013897Y0046805D01*
X0014179Y0046549D01*
X0014467Y0046301D01*
X0014761Y0046059D01*
X0015060Y0045824D01*
X0015366Y0045597D01*
X0015676Y0045377D01*
X0015992Y0045164D01*
X0016313Y0044960D01*
X0016638Y0044763D01*
X0016969Y0044574D01*
X0017304Y0044393D01*
X0017643Y0044220D01*
X0017986Y0044056D01*
X0018333Y0043899D01*
X0018684Y0043752D01*
X0019038Y0043612D01*
X0019395Y0043482D01*
X0019756Y0043360D01*
X0020119Y0043247D01*
X0020485Y0043142D01*
X0020853Y0043047D01*
X0021224Y0042960D01*
X0021596Y0042882D01*
X0021971Y0042814D01*
X0022347Y0042754D01*
X0022724Y0042704D01*
X0023102Y0042663D01*
X0023481Y0042630D01*
X0023861Y0042607D01*
X0024241Y0042594D01*
X0024622Y0042589D01*
D11*
X0069898Y0106368D03*
X0069898Y0120541D03*
X0089583Y0120541D03*
X0089583Y0106368D03*
X0119110Y0106368D03*
X0119110Y0120541D03*
X0138795Y0120541D03*
X0138795Y0106368D03*
X0146669Y0177234D03*
X0146669Y0191407D03*
X0166354Y0191407D03*
X0166354Y0177234D03*
X0186039Y0177234D03*
X0186039Y0191407D03*
X0205724Y0191407D03*
X0205724Y0177234D03*
D12*
X0203854Y0168277D02*
X0200902Y0168277D01*
X0203854Y0168277D02*
X0203854Y0164931D01*
X0200902Y0164931D01*
X0200902Y0168277D01*
X0200902Y0165866D02*
X0203854Y0165866D01*
X0203854Y0166801D02*
X0200902Y0166801D01*
X0200902Y0167736D02*
X0203854Y0167736D01*
X0207595Y0168277D02*
X0210547Y0168277D01*
X0210547Y0164931D01*
X0207595Y0164931D01*
X0207595Y0168277D01*
X0207595Y0165866D02*
X0210547Y0165866D01*
X0210547Y0166801D02*
X0207595Y0166801D01*
X0207595Y0167736D02*
X0210547Y0167736D01*
X0222555Y0166900D02*
X0225507Y0166900D01*
X0222555Y0166900D02*
X0222555Y0170246D01*
X0225507Y0170246D01*
X0225507Y0166900D01*
X0225507Y0167835D02*
X0222555Y0167835D01*
X0222555Y0168770D02*
X0225507Y0168770D01*
X0225507Y0169705D02*
X0222555Y0169705D01*
X0229248Y0166900D02*
X0232200Y0166900D01*
X0229248Y0166900D02*
X0229248Y0170246D01*
X0232200Y0170246D01*
X0232200Y0166900D01*
X0232200Y0167835D02*
X0229248Y0167835D01*
X0229248Y0168770D02*
X0232200Y0168770D01*
X0232200Y0169705D02*
X0229248Y0169705D01*
X0229248Y0178120D02*
X0232200Y0178120D01*
X0232200Y0174774D01*
X0229248Y0174774D01*
X0229248Y0178120D01*
X0229248Y0175709D02*
X0232200Y0175709D01*
X0232200Y0176644D02*
X0229248Y0176644D01*
X0229248Y0177579D02*
X0232200Y0177579D01*
X0232200Y0182648D02*
X0229248Y0182648D01*
X0229248Y0185994D01*
X0232200Y0185994D01*
X0232200Y0182648D01*
X0232200Y0183583D02*
X0229248Y0183583D01*
X0229248Y0184518D02*
X0232200Y0184518D01*
X0232200Y0185453D02*
X0229248Y0185453D01*
X0225507Y0182648D02*
X0222555Y0182648D01*
X0222555Y0185994D01*
X0225507Y0185994D01*
X0225507Y0182648D01*
X0225507Y0183583D02*
X0222555Y0183583D01*
X0222555Y0184518D02*
X0225507Y0184518D01*
X0225507Y0185453D02*
X0222555Y0185453D01*
X0222555Y0178120D02*
X0225507Y0178120D01*
X0225507Y0174774D01*
X0222555Y0174774D01*
X0222555Y0178120D01*
X0222555Y0175709D02*
X0225507Y0175709D01*
X0225507Y0176644D02*
X0222555Y0176644D01*
X0222555Y0177579D02*
X0225507Y0177579D01*
X0234367Y0182648D02*
X0237319Y0182648D01*
X0234367Y0182648D02*
X0234367Y0185994D01*
X0237319Y0185994D01*
X0237319Y0182648D01*
X0237319Y0183583D02*
X0234367Y0183583D01*
X0234367Y0184518D02*
X0237319Y0184518D01*
X0237319Y0185453D02*
X0234367Y0185453D01*
X0241059Y0182648D02*
X0244011Y0182648D01*
X0241059Y0182648D02*
X0241059Y0185994D01*
X0244011Y0185994D01*
X0244011Y0182648D01*
X0244011Y0183583D02*
X0241059Y0183583D01*
X0241059Y0184518D02*
X0244011Y0184518D01*
X0244011Y0185453D02*
X0241059Y0185453D01*
X0207397Y0155679D02*
X0207397Y0152727D01*
X0204051Y0152727D01*
X0204051Y0155679D01*
X0207397Y0155679D01*
X0207397Y0153662D02*
X0204051Y0153662D01*
X0204051Y0154597D02*
X0207397Y0154597D01*
X0207397Y0155532D02*
X0204051Y0155532D01*
X0207397Y0148986D02*
X0207397Y0146034D01*
X0204051Y0146034D01*
X0204051Y0148986D01*
X0207397Y0148986D01*
X0207397Y0146969D02*
X0204051Y0146969D01*
X0204051Y0147904D02*
X0207397Y0147904D01*
X0207397Y0148839D02*
X0204051Y0148839D01*
X0204051Y0132057D02*
X0204051Y0129105D01*
X0204051Y0132057D02*
X0207397Y0132057D01*
X0207397Y0129105D01*
X0204051Y0129105D01*
X0204051Y0130040D02*
X0207397Y0130040D01*
X0207397Y0130975D02*
X0204051Y0130975D01*
X0204051Y0131910D02*
X0207397Y0131910D01*
X0204051Y0125364D02*
X0204051Y0122412D01*
X0204051Y0125364D02*
X0207397Y0125364D01*
X0207397Y0122412D01*
X0204051Y0122412D01*
X0204051Y0123347D02*
X0207397Y0123347D01*
X0207397Y0124282D02*
X0204051Y0124282D01*
X0204051Y0125217D02*
X0207397Y0125217D01*
X0164681Y0125364D02*
X0164681Y0122412D01*
X0164681Y0125364D02*
X0168027Y0125364D01*
X0168027Y0122412D01*
X0164681Y0122412D01*
X0164681Y0123347D02*
X0168027Y0123347D01*
X0168027Y0124282D02*
X0164681Y0124282D01*
X0164681Y0125217D02*
X0168027Y0125217D01*
X0164681Y0129105D02*
X0164681Y0132057D01*
X0168027Y0132057D01*
X0168027Y0129105D01*
X0164681Y0129105D01*
X0164681Y0130040D02*
X0168027Y0130040D01*
X0168027Y0130975D02*
X0164681Y0130975D01*
X0164681Y0131910D02*
X0168027Y0131910D01*
X0168027Y0134223D02*
X0168027Y0137175D01*
X0168027Y0134223D02*
X0164681Y0134223D01*
X0164681Y0137175D01*
X0168027Y0137175D01*
X0168027Y0135158D02*
X0164681Y0135158D01*
X0164681Y0136093D02*
X0168027Y0136093D01*
X0168027Y0137028D02*
X0164681Y0137028D01*
X0168027Y0140916D02*
X0168027Y0143868D01*
X0168027Y0140916D02*
X0164681Y0140916D01*
X0164681Y0143868D01*
X0168027Y0143868D01*
X0168027Y0141851D02*
X0164681Y0141851D01*
X0164681Y0142786D02*
X0168027Y0142786D01*
X0168027Y0143721D02*
X0164681Y0143721D01*
X0168027Y0146034D02*
X0168027Y0148986D01*
X0168027Y0146034D02*
X0164681Y0146034D01*
X0164681Y0148986D01*
X0168027Y0148986D01*
X0168027Y0146969D02*
X0164681Y0146969D01*
X0164681Y0147904D02*
X0168027Y0147904D01*
X0168027Y0148839D02*
X0164681Y0148839D01*
X0168027Y0152727D02*
X0168027Y0155679D01*
X0168027Y0152727D02*
X0164681Y0152727D01*
X0164681Y0155679D01*
X0168027Y0155679D01*
X0168027Y0153662D02*
X0164681Y0153662D01*
X0164681Y0154597D02*
X0168027Y0154597D01*
X0168027Y0155532D02*
X0164681Y0155532D01*
X0164484Y0168277D02*
X0161532Y0168277D01*
X0164484Y0168277D02*
X0164484Y0164931D01*
X0161532Y0164931D01*
X0161532Y0168277D01*
X0161532Y0165866D02*
X0164484Y0165866D01*
X0164484Y0166801D02*
X0161532Y0166801D01*
X0161532Y0167736D02*
X0164484Y0167736D01*
X0168225Y0168277D02*
X0171177Y0168277D01*
X0171177Y0164931D01*
X0168225Y0164931D01*
X0168225Y0168277D01*
X0168225Y0165866D02*
X0171177Y0165866D01*
X0171177Y0166801D02*
X0168225Y0166801D01*
X0168225Y0167736D02*
X0171177Y0167736D01*
X0181217Y0168277D02*
X0184169Y0168277D01*
X0184169Y0164931D01*
X0181217Y0164931D01*
X0181217Y0168277D01*
X0181217Y0165866D02*
X0184169Y0165866D01*
X0184169Y0166801D02*
X0181217Y0166801D01*
X0181217Y0167736D02*
X0184169Y0167736D01*
X0187910Y0168277D02*
X0190862Y0168277D01*
X0190862Y0164931D01*
X0187910Y0164931D01*
X0187910Y0168277D01*
X0187910Y0165866D02*
X0190862Y0165866D01*
X0190862Y0166801D02*
X0187910Y0166801D01*
X0187910Y0167736D02*
X0190862Y0167736D01*
X0151492Y0168277D02*
X0148540Y0168277D01*
X0151492Y0168277D02*
X0151492Y0164931D01*
X0148540Y0164931D01*
X0148540Y0168277D01*
X0148540Y0165866D02*
X0151492Y0165866D01*
X0151492Y0166801D02*
X0148540Y0166801D01*
X0148540Y0167736D02*
X0151492Y0167736D01*
X0144799Y0168277D02*
X0141847Y0168277D01*
X0144799Y0168277D02*
X0144799Y0164931D01*
X0141847Y0164931D01*
X0141847Y0168277D01*
X0141847Y0165866D02*
X0144799Y0165866D01*
X0144799Y0166801D02*
X0141847Y0166801D01*
X0141847Y0167736D02*
X0144799Y0167736D01*
X0140468Y0137962D02*
X0140468Y0135010D01*
X0137122Y0135010D01*
X0137122Y0137962D01*
X0140468Y0137962D01*
X0140468Y0135945D02*
X0137122Y0135945D01*
X0137122Y0136880D02*
X0140468Y0136880D01*
X0140468Y0137815D02*
X0137122Y0137815D01*
X0140468Y0131269D02*
X0140468Y0128317D01*
X0137122Y0128317D01*
X0137122Y0131269D01*
X0140468Y0131269D01*
X0140468Y0129252D02*
X0137122Y0129252D01*
X0137122Y0130187D02*
X0140468Y0130187D01*
X0140468Y0131122D02*
X0137122Y0131122D01*
X0120783Y0131269D02*
X0120783Y0128317D01*
X0117437Y0128317D01*
X0117437Y0131269D01*
X0120783Y0131269D01*
X0120783Y0129252D02*
X0117437Y0129252D01*
X0117437Y0130187D02*
X0120783Y0130187D01*
X0120783Y0131122D02*
X0117437Y0131122D01*
X0120783Y0135010D02*
X0120783Y0137962D01*
X0120783Y0135010D02*
X0117437Y0135010D01*
X0117437Y0137962D01*
X0120783Y0137962D01*
X0120783Y0135945D02*
X0117437Y0135945D01*
X0117437Y0136880D02*
X0120783Y0136880D01*
X0120783Y0137815D02*
X0117437Y0137815D01*
X0091256Y0137962D02*
X0091256Y0135010D01*
X0087910Y0135010D01*
X0087910Y0137962D01*
X0091256Y0137962D01*
X0091256Y0135945D02*
X0087910Y0135945D01*
X0087910Y0136880D02*
X0091256Y0136880D01*
X0091256Y0137815D02*
X0087910Y0137815D01*
X0091256Y0131269D02*
X0091256Y0128317D01*
X0087910Y0128317D01*
X0087910Y0131269D01*
X0091256Y0131269D01*
X0091256Y0129252D02*
X0087910Y0129252D01*
X0087910Y0130187D02*
X0091256Y0130187D01*
X0091256Y0131122D02*
X0087910Y0131122D01*
X0071571Y0131269D02*
X0071571Y0128317D01*
X0068225Y0128317D01*
X0068225Y0131269D01*
X0071571Y0131269D01*
X0071571Y0129252D02*
X0068225Y0129252D01*
X0068225Y0130187D02*
X0071571Y0130187D01*
X0071571Y0131122D02*
X0068225Y0131122D01*
X0071571Y0135010D02*
X0071571Y0137962D01*
X0071571Y0135010D02*
X0068225Y0135010D01*
X0068225Y0137962D01*
X0071571Y0137962D01*
X0071571Y0135945D02*
X0068225Y0135945D01*
X0068225Y0136880D02*
X0071571Y0136880D01*
X0071571Y0137815D02*
X0068225Y0137815D01*
D13*
X0172653Y0138159D02*
X0172653Y0139931D01*
X0178165Y0139931D01*
X0178165Y0138159D01*
X0172653Y0138159D01*
X0172653Y0138720D02*
X0178165Y0138720D01*
X0178165Y0139281D02*
X0172653Y0139281D01*
X0172653Y0139842D02*
X0178165Y0139842D01*
X0172653Y0143159D02*
X0172653Y0144931D01*
X0178165Y0144931D01*
X0178165Y0143159D01*
X0172653Y0143159D01*
X0172653Y0143720D02*
X0178165Y0143720D01*
X0178165Y0144281D02*
X0172653Y0144281D01*
X0172653Y0144842D02*
X0178165Y0144842D01*
X0172653Y0148159D02*
X0172653Y0149931D01*
X0178165Y0149931D01*
X0178165Y0148159D01*
X0172653Y0148159D01*
X0172653Y0148720D02*
X0178165Y0148720D01*
X0178165Y0149281D02*
X0172653Y0149281D01*
X0172653Y0149842D02*
X0178165Y0149842D01*
X0172653Y0153159D02*
X0172653Y0154931D01*
X0178165Y0154931D01*
X0178165Y0153159D01*
X0172653Y0153159D01*
X0172653Y0153720D02*
X0178165Y0153720D01*
X0178165Y0154281D02*
X0172653Y0154281D01*
X0172653Y0154842D02*
X0178165Y0154842D01*
X0193913Y0154931D02*
X0193913Y0153159D01*
X0193913Y0154931D02*
X0199425Y0154931D01*
X0199425Y0153159D01*
X0193913Y0153159D01*
X0193913Y0153720D02*
X0199425Y0153720D01*
X0199425Y0154281D02*
X0193913Y0154281D01*
X0193913Y0154842D02*
X0199425Y0154842D01*
X0193913Y0149931D02*
X0193913Y0148159D01*
X0193913Y0149931D02*
X0199425Y0149931D01*
X0199425Y0148159D01*
X0193913Y0148159D01*
X0193913Y0148720D02*
X0199425Y0148720D01*
X0199425Y0149281D02*
X0193913Y0149281D01*
X0193913Y0149842D02*
X0199425Y0149842D01*
X0193913Y0144931D02*
X0193913Y0143159D01*
X0193913Y0144931D02*
X0199425Y0144931D01*
X0199425Y0143159D01*
X0193913Y0143159D01*
X0193913Y0143720D02*
X0199425Y0143720D01*
X0199425Y0144281D02*
X0193913Y0144281D01*
X0193913Y0144842D02*
X0199425Y0144842D01*
X0193913Y0139931D02*
X0193913Y0138159D01*
X0193913Y0139931D02*
X0199425Y0139931D01*
X0199425Y0138159D01*
X0193913Y0138159D01*
X0193913Y0138720D02*
X0199425Y0138720D01*
X0199425Y0139281D02*
X0193913Y0139281D01*
X0193913Y0139842D02*
X0199425Y0139842D01*
X0193913Y0134931D02*
X0193913Y0133159D01*
X0193913Y0134931D02*
X0199425Y0134931D01*
X0199425Y0133159D01*
X0193913Y0133159D01*
X0193913Y0133720D02*
X0199425Y0133720D01*
X0199425Y0134281D02*
X0193913Y0134281D01*
X0193913Y0134842D02*
X0199425Y0134842D01*
X0193913Y0129931D02*
X0193913Y0128159D01*
X0193913Y0129931D02*
X0199425Y0129931D01*
X0199425Y0128159D01*
X0193913Y0128159D01*
X0193913Y0128720D02*
X0199425Y0128720D01*
X0199425Y0129281D02*
X0193913Y0129281D01*
X0193913Y0129842D02*
X0199425Y0129842D01*
X0193913Y0124931D02*
X0193913Y0123159D01*
X0193913Y0124931D02*
X0199425Y0124931D01*
X0199425Y0123159D01*
X0193913Y0123159D01*
X0193913Y0123720D02*
X0199425Y0123720D01*
X0199425Y0124281D02*
X0193913Y0124281D01*
X0193913Y0124842D02*
X0199425Y0124842D01*
X0172653Y0124931D02*
X0172653Y0123159D01*
X0172653Y0124931D02*
X0178165Y0124931D01*
X0178165Y0123159D01*
X0172653Y0123159D01*
X0172653Y0123720D02*
X0178165Y0123720D01*
X0178165Y0124281D02*
X0172653Y0124281D01*
X0172653Y0124842D02*
X0178165Y0124842D01*
X0172653Y0128159D02*
X0172653Y0129931D01*
X0178165Y0129931D01*
X0178165Y0128159D01*
X0172653Y0128159D01*
X0172653Y0128720D02*
X0178165Y0128720D01*
X0178165Y0129281D02*
X0172653Y0129281D01*
X0172653Y0129842D02*
X0178165Y0129842D01*
X0172653Y0133159D02*
X0172653Y0134931D01*
X0178165Y0134931D01*
X0178165Y0133159D01*
X0172653Y0133159D01*
X0172653Y0133720D02*
X0178165Y0133720D01*
X0178165Y0134281D02*
X0172653Y0134281D01*
X0172653Y0134842D02*
X0178165Y0134842D01*
M02*
